HIERARCHY
ROOT Hips
{
	OFFSET -3.958830 18.904000 13.208200
	CHANNELS 6 Xposition Yposition Zposition Zrotation Yrotation Xrotation 
	JOINT LHipJoint
	{
		OFFSET 0.000000 0.000000 0.000000
		CHANNELS 3 Zrotation Yrotation Xrotation
		JOINT LeftUpLeg
		{
			OFFSET 1.800000 -1.400000 0.085000
			CHANNELS 3 Zrotation Yrotation Xrotation
			JOINT LeftLeg
			{
				OFFSET 2.215000 -6.000000 0.000000
				CHANNELS 3 Zrotation Yrotation Xrotation
				JOINT LeftFoot
				{
					OFFSET 2.500000 -6.900000 0.000000
					CHANNELS 3 Zrotation Yrotation Xrotation
					JOINT LeftToeBase
					{
						OFFSET 0.200000 -0.500000 1.950000
						CHANNELS 3 Zrotation Yrotation Xrotation
						End Site
						{
							OFFSET 0.000000 0.000000 0.000000
						}
					}
				}
			}
		}
	}
	JOINT RHipJoint
	{
		OFFSET 0.000000 0.000000 0.000000
		CHANNELS 3 Zrotation Yrotation Xrotation
		JOINT RightUpLeg
		{
			OFFSET -1.800000 -1.400000 0.085000
			CHANNELS 3 Zrotation Yrotation Xrotation
			JOINT RightLeg
			{
				OFFSET -2.215000 -6.000000 0.000000
				CHANNELS 3 Zrotation Yrotation Xrotation
				JOINT RightFoot
				{
					OFFSET -2.500000 -6.900000 0.000000
					CHANNELS 3 Zrotation Yrotation Xrotation
					JOINT RightToeBase
					{
						OFFSET -0.200000 -0.500000 1.950000
						CHANNELS 3 Zrotation Yrotation Xrotation
						End Site
						{
							OFFSET 0.000000 0.000000 0.000000
						}
					}
				}
			}
		}
	}
	JOINT LowerBack
	{
		OFFSET 0.000000 0.000000 0.000000
		CHANNELS 3 Zrotation Yrotation Xrotation
		JOINT Spine
		{
			OFFSET -0.087000 1.940000 -0.288900
			CHANNELS 3 Zrotation Yrotation Xrotation
			JOINT Spine1
			{
				OFFSET 0.000000 1.950000 0.060000
				CHANNELS 3 Zrotation Yrotation Xrotation
				JOINT Neck
				{
					OFFSET 0.000000 0.000000 0.000000
					CHANNELS 3 Zrotation Yrotation Xrotation
					JOINT Neck1
					{
						OFFSET 0.000000 1.600000 0.340000
						CHANNELS 3 Zrotation Yrotation Xrotation
						JOINT Head
						{
							OFFSET 0.000000 1.667000 -0.240000
							CHANNELS 3 Zrotation Yrotation Xrotation
							End Site
							{
								OFFSET 0.000000 0.000000 0.000000
							}
						}
					}
				}
				JOINT LeftShoulder
				{
					OFFSET 0.000000 0.000000 0.000000
					CHANNELS 3 Zrotation Yrotation Xrotation
					JOINT LeftArm
					{
						OFFSET 2.700000 1.550000 -0.730000
						CHANNELS 3 Zrotation Yrotation Xrotation
						JOINT LeftForeArm
						{
							OFFSET 5.450000 0.000000 0.000000
							CHANNELS 3 Zrotation Yrotation Xrotation
							JOINT LeftHand
							{
								OFFSET 3.450000 0.000000 0.000000
								CHANNELS 3 Zrotation Yrotation Xrotation
								JOINT LeftHandIndex1
								{
									OFFSET 0.750000 0.000000 0.000000
									CHANNELS 3 Zrotation Yrotation Xrotation
									End Site
									{
										OFFSET 0.000000 0.000000 0.000000
									}
								}
							}
						}
					}
				}
				JOINT RightShoulder
				{
					OFFSET 0.000000 0.000000 0.000000
					CHANNELS 3 Zrotation Yrotation Xrotation
					JOINT RightArm
					{
						OFFSET -2.700000 1.550000 -0.730000
						CHANNELS 3 Zrotation Yrotation Xrotation
						JOINT RightForeArm
						{
							OFFSET -5.450000 0.000000 0.000000
							CHANNELS 3 Zrotation Yrotation Xrotation
							JOINT RightHand
							{
								OFFSET -3.450000 0.000000 0.000000
								CHANNELS 3 Zrotation Yrotation Xrotation
								JOINT RightHandIndex1
								{
									OFFSET -0.750000 0.000000 0.000000
									CHANNELS 3 Zrotation Yrotation Xrotation
									End Site
									{
										OFFSET 0.000000 0.000000 0.000000
									}
								}
							}
						}
					}
				}
			}
		}
	}
}
MOTION
Frames: 14
Frame Time: 0.016667
-0.378550 17.847950 0.432350 -9.947806 14.076014 -11.179138 -15.662215 13.635120 2.410997 17.712067 1.937255 -10.577255 -7.243145 7.023571 12.000138 -0.562855 5.555400 2.944982 -0.181900 -0.404630 -0.569500 17.816084 -10.575627 2.662070 -4.769151 -0.613818 2.081705 8.569802 -5.954872 10.813059 -0.235821 -4.907993 2.916813 0.060450 1.107580 0.080130 -2.362922 -2.682107 -6.886094 -9.076250 1.480544 16.753595 -12.308610 11.844936 19.472160 7.962456 -10.621161 -11.780960 -16.788389 -1.741482 24.544573 6.362980 -11.375120 -6.269260 7.018778 -9.987301 7.413542 -9.579380 -8.413108 -1.957134 147.689960 -11.074072 -64.094792 -4.190276 3.111734 0.245550 0.465020 -0.584860 0.271170 -21.489980 25.138624 3.472161 -48.089357 9.649776 -16.825409 -26.546133 -12.569214 -0.679463 2.933584 -0.994735 -0.577240 0.725090 0.534830 0.104650 
-0.383770 17.825240 0.416770 -9.853845 14.354406 -10.956730 -15.636535 13.555151 2.394362 17.688636 2.129567 -11.261269 -7.595595 7.246391 12.544545 -0.629895 5.678854 2.892731 -0.176440 -0.394370 -0.620740 17.854277 -10.618448 2.638163 -4.777099 -0.416776 1.569385 8.593573 -5.939780 11.288330 -0.197347 -4.957660 2.885044 0.115680 1.191680 0.100360 -2.460173 -2.475243 -6.848421 -8.381483 1.496718 16.382984 -11.953272 11.601344 19.914179 7.722120 -10.936324 -11.051116 -17.135793 -0.889081 24.033913 6.746950 -11.487170 -6.348070 6.451864 -9.919298 7.045102 -9.671367 -8.598668 -1.903772 147.834550 -11.871603 -66.821560 -4.230314 3.144126 0.207980 0.518780 -0.642650 0.288800 -20.508893 25.419993 2.370651 -50.247613 15.299346 -18.685028 -23.765771 -7.050875 -1.933216 2.555913 -1.116334 -0.604220 0.762710 0.580560 0.125150 
-0.389740 17.800070 0.413690 -9.713875 14.729551 -10.377607 -15.611149 13.458202 2.395755 17.580208 2.238814 -12.125902 -7.994600 7.430345 12.895484 -0.681170 5.772968 2.857597 -0.168790 -0.386990 -0.655140 17.892951 -10.657978 2.608067 -4.787944 -0.219514 0.801393 8.617378 -5.911045 11.664361 -0.156289 -4.981172 2.867644 0.159610 1.269070 0.129710 -2.555781 -2.245678 -6.804434 -7.949345 1.580229 15.301553 -11.162771 11.190425 20.246925 7.484047 -10.795924 -10.466633 -16.931736 0.229217 24.297266 6.636490 -11.164110 -5.692690 5.631200 -10.100744 6.816466 -10.146989 -8.357348 -1.984962 147.976325 -12.562900 -69.038338 -4.266547 3.179113 0.168910 0.579520 -0.691810 0.309240 -19.166992 25.674441 1.557104 -51.378426 21.988495 -21.332665 -23.068042 -2.665555 -2.752596 2.326209 -1.260141 -0.622930 0.785590 0.610370 0.141500 
-0.389830 17.776010 0.411080 -9.624973 14.822126 -9.979435 -15.546897 13.323402 2.372071 17.437580 2.343005 -12.713887 -8.288928 7.609795 13.308293 -0.716658 5.848094 2.839048 -0.179240 -0.384690 -0.705780 17.963565 -10.771016 2.599866 -4.863813 -0.077556 0.182237 8.644587 -5.925953 12.058806 -0.121391 -5.028959 2.853379 0.194460 1.358050 0.147100 -2.757897 -1.820505 -6.780133 -6.966390 1.553391 14.411487 -10.863167 10.752507 20.601857 7.141572 -10.741444 -10.002131 -16.774072 1.530409 24.554012 6.941280 -10.763530 -5.070780 5.302479 -10.352090 6.731907 -10.643820 -7.983319 -2.174837 148.017011 -13.012382 -70.646853 -4.309123 3.197835 0.125880 0.641380 -0.739570 0.329280 -17.993424 26.054659 0.882241 -51.340466 28.734753 -24.298877 -23.738299 0.995366 -3.517933 2.201341 -1.367676 -0.644380 0.824570 0.643620 0.168150 
-0.392980 17.752910 0.406390 -9.289355 14.966621 -9.706147 -15.471650 13.205375 2.333486 17.029551 2.409948 -13.218360 -8.438584 7.800141 14.038898 -0.748347 5.873879 2.821138 -0.202760 -0.393720 -0.742190 18.031403 -10.932083 2.607738 -5.250350 0.053010 -0.359863 8.746762 -5.999219 12.421224 -0.102456 -5.057166 2.844355 0.206760 1.400600 0.148720 -2.981069 -1.335241 -6.783343 -6.139872 1.773135 13.993086 -10.765920 10.538389 20.719803 6.710897 -10.290477 -9.640490 -15.997153 2.586647 25.626384 7.680150 -10.286110 -5.124300 5.210166 -11.083313 6.740796 -10.535743 -7.668059 -2.697692 147.484691 -13.710622 -71.815718 -4.320119 3.179306 0.123360 0.666910 -0.751410 0.326220 -16.871750 26.542276 0.361497 -48.146151 34.204594 -25.596661 -26.999354 7.003406 -4.724154 2.134594 -1.461554 -0.665530 0.857820 0.675100 0.177850 
-0.394490 17.737040 0.402930 -8.877155 15.187355 -9.273849 -15.403595 13.072625 2.289246 16.505152 2.432450 -13.953322 -8.554058 8.002758 14.920651 -0.793555 5.890958 2.801612 -0.183830 -0.353980 -0.743130 18.097614 -11.085910 2.605873 -5.726992 0.232110 -1.051678 9.016247 -6.090001 12.871531 -0.085190 -5.105007 2.820506 0.253450 1.428320 0.149820 -3.190429 -0.832188 -6.751046 -5.563137 2.124699 13.364301 -10.158885 10.345049 20.997538 6.342289 -9.809230 -9.074066 -14.882226 3.263995 26.032724 7.827410 -9.744000 -5.462020 5.187931 -11.553456 6.654849 -10.946853 -8.154873 -2.763209 147.257401 -14.254828 -72.977266 -4.328465 3.183178 0.104250 0.695130 -0.766640 0.327820 -15.881743 26.804194 -0.451194 -43.588097 40.262450 -26.289744 -30.461197 12.450328 -6.401052 2.073118 -1.556104 -0.676880 0.884750 0.682170 0.181880 
-0.393860 17.722210 0.396320 -8.517826 15.192701 -9.009435 -15.334851 12.938385 2.235010 16.080842 2.456462 -14.543665 -8.539204 8.202320 15.949004 -0.828657 5.919609 2.764237 -0.155320 -0.299340 -0.747910 18.163330 -11.256864 2.606317 -6.242395 0.398261 -1.658511 9.217148 -6.202416 13.388773 -0.086510 -5.175025 2.767288 0.302870 1.440320 0.178200 -3.399061 -0.290633 -6.723459 -4.953728 2.458525 12.969798 -9.566860 10.134938 21.236130 6.196481 -9.288594 -8.537168 -13.521488 3.723072 25.983770 7.790150 -9.152290 -6.060760 5.344909 -12.052356 6.652191 -11.744192 -8.440157 -2.972107 147.113453 -14.570666 -74.127002 -4.329482 3.233971 0.084920 0.717920 -0.762160 0.333160 -15.430356 27.075228 -1.417468 -36.948193 45.092488 -25.033193 -33.585112 18.519302 -8.470893 2.023382 -1.636368 -0.666340 0.884880 0.688350 0.192360 
-0.392530 17.708690 0.394260 -8.250456 15.027185 -8.533811 -15.258595 12.810943 2.215931 15.692812 2.389497 -15.315605 -8.467545 8.359846 16.951947 -0.856139 5.880615 2.728804 -0.102240 -0.243280 -0.681870 18.226732 -11.433490 2.622283 -6.644362 0.569800 -2.495887 9.399302 -6.316857 13.895364 -0.115736 -5.160762 2.740073 0.321510 1.360310 0.197620 -3.613889 0.244563 -6.744729 -4.090653 2.971467 12.550693 -9.085078 9.882948 20.573683 5.874988 -8.385058 -7.991400 -11.948115 3.834628 27.287046 7.572650 -8.323050 -7.277020 4.240913 -12.780164 6.800031 -11.466271 -8.134671 -2.916443 147.138186 -15.726806 -76.117875 -4.281977 3.229966 0.129310 0.681780 -0.701980 0.316420 -13.581114 26.781045 -2.225956 -28.505316 49.087460 -21.387146 -35.998375 25.422092 -10.664976 1.968939 -1.621270 -0.639080 0.848610 0.660510 0.161530 
-0.391450 17.691840 0.392870 -7.930303 14.798966 -8.134448 -15.196705 12.721528 2.216146 15.334768 2.271899 -16.046956 -8.394185 8.531323 18.030321 -0.824819 5.831065 2.711758 -0.041890 -0.178920 -0.599910 18.270982 -11.580237 2.638786 -7.117600 0.731400 -3.263809 9.655975 -6.453347 14.430791 -0.158880 -5.139494 2.724597 0.319030 1.263920 0.214850 -3.778778 0.658852 -6.794055 -3.298289 3.444104 12.481675 -8.668801 9.643582 19.812436 5.589193 -7.345217 -7.728375 -10.197271 3.651103 28.383573 7.383520 -7.497840 -8.200470 3.788535 -13.355748 7.222633 -11.929083 -7.620858 -2.818262 147.419222 -16.653038 -78.381951 -4.215662 3.240440 0.163500 0.632220 -0.627630 0.310340 -12.535801 26.187731 -2.866803 -18.278661 50.071220 -15.326882 -39.546340 33.740770 -13.849045 1.920718 -1.566855 -0.586630 0.794090 0.601450 0.139650 
-0.388620 17.671120 0.392880 -7.715520 14.617313 -8.197822 -15.144210 12.681755 2.233906 15.235218 2.167141 -16.386309 -8.397601 8.765257 19.142017 -0.768351 5.848083 2.682694 -0.012250 -0.154140 -0.530760 18.301827 -11.690783 2.654842 -7.560339 0.826011 -3.559852 9.900361 -6.655456 15.124572 -0.206277 -5.148163 2.705673 0.290450 1.174610 0.218170 -3.911932 0.916276 -6.882259 -2.193572 3.744796 13.124360 -8.432841 9.429103 19.356381 5.187455 -6.314570 -7.838839 -8.589679 3.151448 29.141897 7.487590 -6.970810 -8.993330 3.721660 -13.673394 7.548311 -12.585147 -7.354378 -2.723484 147.442703 -17.547410 -80.402511 -4.153509 3.231966 0.202180 0.576110 -0.560480 0.296780 -11.737294 25.362622 -2.621992 -9.830720 47.813544 -10.299708 -45.052778 43.085602 -18.612911 1.827508 -1.418744 -0.546350 0.747250 0.553590 0.117690 
-0.391020 17.648170 0.393070 -7.411819 14.190728 -8.387155 -15.110116 12.688853 2.260791 15.149337 2.064717 -16.508957 -8.437520 9.049021 20.284253 -0.727721 5.942434 2.643676 -0.021420 -0.172540 -0.497290 18.314281 -11.760856 2.654168 -8.055138 0.906262 -3.789557 10.031135 -6.854952 15.854304 -0.227608 -5.168009 2.698773 0.255970 1.130510 0.209480 -3.982210 1.020752 -6.947242 -1.329810 3.955871 13.804259 -8.123615 9.188847 18.974627 4.791759 -5.462650 -8.029126 -7.332814 2.775003 29.643573 7.376760 -6.516530 -9.227120 3.368758 -13.553071 7.623263 -13.081601 -7.104172 -2.511838 147.334746 -18.652868 -82.303321 -4.133085 3.188710 0.235890 0.548410 -0.526580 0.282050 -10.713230 24.360014 -1.977309 -4.451393 45.429796 -7.659779 -50.841637 51.344328 -24.092814 1.673302 -1.179600 -0.542130 0.731430 0.535710 0.096140 
-0.393190 17.619300 0.393710 -7.145898 13.660644 -8.673038 -15.094648 12.705682 2.315621 15.270533 1.935884 -16.554791 -8.729223 9.393977 21.313659 -0.686675 6.089784 2.582245 -0.011950 -0.185280 -0.436760 18.312208 -11.790578 2.636105 -8.505440 0.947049 -3.895370 10.055938 -7.049546 16.573498 -0.256061 -5.183500 2.693615 0.223880 1.073410 0.213280 -3.996504 1.024380 -7.005623 -0.628150 4.023062 14.488159 -7.706370 8.844051 18.665714 4.554606 -4.567884 -8.240563 -6.035994 2.257974 30.184870 6.952540 -6.034110 -9.819850 2.851239 -13.082559 7.545237 -13.468949 -6.644689 -2.241053 147.394560 -19.718237 -84.108606 -4.111207 3.151164 0.281820 0.518420 -0.483670 0.265340 -9.834281 22.974179 -1.227795 -0.560442 43.176014 -6.215556 -59.050937 58.209077 -31.427668 1.475360 -0.819483 -0.533060 0.706910 0.509210 0.063520 
-0.396710 17.595370 0.393090 -6.950366 13.115333 -9.093436 -15.078357 12.731966 2.367966 15.470929 1.822884 -16.658831 -8.895520 9.771807 22.598557 -0.627534 6.262583 2.506989 -0.003980 -0.185930 -0.390680 18.312771 -11.816123 2.611769 -8.897775 0.987379 -3.948229 10.020737 -7.259472 17.493688 -0.290615 -5.216048 2.672402 0.195800 1.018350 0.222650 -4.015116 1.002404 -7.061233 0.240145 3.965469 15.313878 -7.537603 8.519116 18.516382 4.355255 -3.741479 -8.515790 -4.864249 1.580279 30.399100 6.756840 -5.789590 -10.647330 2.613284 -12.360428 7.307090 -13.720927 -6.584629 -1.883142 147.649885 -20.326343 -85.339895 -4.086576 3.135217 0.314000 0.486550 -0.436680 0.251310 -9.339929 21.322724 -0.286290 2.036900 40.678949 -5.332734 -70.916665 62.855135 -41.434618 1.252006 -0.272587 -0.511680 0.678510 0.484390 0.045690 
-0.392320 17.565520 0.391670 -7.008820 12.581321 -9.542778 -15.050234 12.766750 2.436993 15.853380 1.662086 -16.774392 -9.037076 10.092694 23.729638 -0.567703 6.435654 2.439227 -0.008100 -0.200700 -0.357570 18.322988 -11.822686 2.595445 -9.150180 1.075742 -4.119628 10.144837 -7.529748 18.598188 -0.322879 -5.263084 2.651407 0.162360 0.975450 0.227940 -4.067132 0.931230 -7.145727 1.833893 3.512215 16.245687 -7.945467 7.941113 18.322080 4.201344 -3.202017 -8.980470 -4.259402 0.911828 30.355419 6.603000 -5.730210 -11.343940 2.161188 -11.411142 6.950409 -13.761677 -6.340675 -1.524208 148.120366 -20.619424 -86.259905 -4.065003 3.111705 0.345060 0.458080 -0.396040 0.242840 -8.828458 19.456566 1.096572 2.555634 37.914143 -3.902820 -86.325186 64.141252 -54.557101 1.099323 0.407988 -0.499090 0.657800 0.462860 0.032690 
